PathFileType  4	(X/Y/Z) D:/Data/Berkelmans/SUB01/trc/slow_skatebelt
DataRate	CameraRate	NumFrames	NumMarkers	Units	OrigDataRate	OrigDataStartFrame	OrigNumFrames
100.0	100.0	10	31	m	100.0	601	800
Frame#	Time	LCAL			RCAL			C7			LSHO			RTIB2			RFEM2			LFEM2			RTIB3			RFEM1			LSIPS			RTIB1			LTIB2			RFEM3			RSHO			RKNEE_med			LKNEE_lat			RKNEE_lat			LMTP5			RMTP5			RSIAS			RSIPS			LSIAS			LKNEE_med			LANK_lat			LANK_med			RANK_lat			RANK_med			LTIB3			LTIB1			LFEM3			LFEM1			
		X1	Y1	Z1	X2	Y2	Z2	X3	Y3	Z3	X4	Y4	Z4	X5	Y5	Z5	X6	Y6	Z6	X7	Y7	Z7	X8	Y8	Z8	X9	Y9	Z9	X10	Y10	Z10	X11	Y11	Z11	X12	Y12	Z12	X13	Y13	Z13	X14	Y14	Z14	X15	Y15	Z15	X16	Y16	Z16	X17	Y17	Z17	X18	Y18	Z18	X19	Y19	Z19	X20	Y20	Z20	X21	Y21	Z21	X22	Y22	Z22	X23	Y23	Z23	X24	Y24	Z24	X25	Y25	Z25	X26	Y26	Z26	X27	Y27	Z27	X28	Y28	Z28	X29	Y29	Z29	X30	Y30	Z30	X31	Y31	Z31	

601	3.0100000	-0.3587761	0.0751111	-0.0458171	0.0148360	0.0608970	0.0493652	-0.2300703	1.3756354	-0.0533442	-0.1440458	1.4231199	-0.1857387	0.0240125	0.3215755	0.1444787	-0.0292663	0.5683009	0.1530865	-0.1790744	0.5993614	-0.1583432	-0.0303840	0.3179735	0.1137557	-0.1047696	0.6446797	0.1659618	-0.2081537	1.0268789	-0.0725276	-0.0064106	0.3836142	0.1428720	-0.2406960	0.3428367	-0.1431019	-0.0804566	0.5695006	0.1231983	-0.1540387	1.3873609	0.1851465	0.0496960	0.5225265	0.0351252	-0.1337391	0.4656967	-0.1212468	0.0560404	0.5053536	0.1263540	-0.2042492	0.0416581	-0.1208521	0.1765534	0.0566966	0.1192030	-0.0173602	0.9747161	0.1083433	-0.2120540	1.0180221	0.0417180	-0.0140850	0.9688885	-0.1151107	-0.1324569	0.4821909	-0.0290476	-0.2982860	0.1084212	-0.0986414	-0.2753467	0.1114216	-0.0202478	0.0720001	0.1024395	0.0986816	0.0981593	0.1170068	0.0126980	-0.2776317	0.3686589	-0.1150270	-0.2350203	0.4113254	-0.1415053	-0.2231185	0.6222413	-0.1113229	-0.2101861	0.6993388	-0.1558771
602	3.0200000	-0.3632169	0.0776773	-0.0456722	0.0103915	0.0614970	0.0496896	-0.2300026	1.3750594	-0.0520560	-0.1434729	1.4228823	-0.1843994	0.0257059	0.3218237	0.1454535	-0.0270815	0.5689422	0.1556945	-0.1771200	0.5984572	-0.1563526	-0.0301701	0.3189951	0.1182881	-0.1020700	0.6457927	0.1677265	-0.2070924	1.0260303	-0.0712320	-0.0037302	0.3841270	0.1459123	-0.2402084	0.3436603	-0.1421389	-0.0785272	0.5698433	0.1261586	-0.1536939	1.3870064	0.1863419	0.0516373	0.5227211	0.0360737	-0.1313271	0.4647902	-0.1204267	0.0585638	0.5053767	0.1265318	-0.2095535	0.0416571	-0.1206021	0.1710209	0.0545133	0.1184767	-0.0156369	0.9750075	0.1091546	-0.2108575	1.0174978	0.0429395	-0.0129978	0.9687066	-0.1142707	-0.1290428	0.4812593	-0.0279249	-0.3023469	0.1100804	-0.0985333	-0.2793169	0.1127240	-0.0200203	0.0683603	0.1020280	0.0992854	0.0827939	0.1147361	0.0189747	-0.2768121	0.3700634	-0.1136574	-0.2334601	0.4120010	-0.1401434	-0.2207065	0.6210366	-0.1089442	-0.2086970	0.6982386	-0.1536494
603	3.0300000	-0.3674248	0.0807271	-0.0455357	0.0057910	0.0622015	0.0500314	-0.2295850	1.3745002	-0.0508861	-0.1437623	1.4227292	-0.1830917	0.0259134	0.3219022	0.1467156	-0.0234848	0.5695323	0.1579040	-0.1747742	0.5977490	-0.1543769	-0.0307121	0.3196554	0.1218101	-0.0982224	0.6464592	0.1708898	-0.2061549	1.0254357	-0.0699424	-0.0023532	0.3848259	0.1475033	-0.2394319	0.3449431	-0.1413004	-0.0756916	0.5699973	0.1297667	-0.1532982	1.3868510	0.1876658	0.0529262	0.5228011	0.0370826	-0.1278043	0.4641933	-0.1204947	0.0598690	0.5052524	0.1268068	-0.2146460	0.0416922	-0.1203943	0.1664820	0.0523444	0.1182382	-0.0139314	0.9754280	0.1099756	-0.2096141	1.0171204	0.0442395	-0.0119651	0.9687133	-0.1135241	-0.1250345	0.4804045	-0.0271809	-0.3062993	0.1122108	-0.0985748	-0.2829015	0.1144359	-0.0200576	0.0644738	0.1016818	0.0996577	0.0789985	0.1144126	0.0194786	-0.2754991	0.3718968	-0.1124816	-0.2315191	0.4132385	-0.1388164	-0.2179686	0.6200848	-0.1064165	-0.2067418	0.6972267	-0.1512800
604	3.0400000	-0.3712014	0.0846236	-0.0454389	0.0009929	0.0627691	0.0502832	-0.2296823	1.3740355	-0.0494446	-0.1433145	1.4228059	-0.1817639	0.0251239	0.3220512	0.1477297	-0.0194047	0.5696431	0.1597392	-0.1721529	0.5972697	-0.1526341	-0.0317054	0.3200647	0.1233135	-0.0941538	0.6464269	0.1748530	-0.2051383	1.0250238	-0.0685360	-0.0024433	0.3852267	0.1482964	-0.2384287	0.3465218	-0.1406500	-0.0726761	0.5697520	0.1334630	-0.1528413	1.3868983	0.1891749	0.0537711	0.5224359	0.0377014	-0.1241581	0.4635361	-0.1202368	0.0606616	0.5048963	0.1275386	-0.2199711	0.0416488	-0.1202126	0.1616219	0.0504699	0.1182934	-0.0123499	0.9759471	0.1108797	-0.2083601	1.0169189	0.0457053	-0.0111498	0.9689287	-0.1129218	-0.1206257	0.4795549	-0.0263681	-0.3097996	0.1145749	-0.0986533	-0.2867505	0.1170079	-0.0208829	0.0602139	0.1013344	0.0999949	0.0748594	0.1141028	0.0199006	-0.2734849	0.3739168	-0.1114148	-0.2289411	0.4143368	-0.1378818	-0.2149711	0.6191712	-0.1039991	-0.2048597	0.6964165	-0.1488425
605	3.0500000	-0.3748936	0.0892299	-0.0456759	-0.0038947	0.0629910	0.0504671	-0.2293050	1.3738823	-0.0480695	-0.1437183	1.4228587	-0.1803168	0.0232963	0.3217265	0.1482492	-0.0162634	0.5693412	0.1611344	-0.1693300	0.5966771	-0.1507591	-0.0332789	0.3201987	0.1233522	-0.0910337	0.6456145	0.1783675	-0.2043569	1.0247775	-0.0668350	-0.0039759	0.3849737	0.1489263	-0.2365388	0.3481433	-0.1401961	-0.0704079	0.5692835	0.1357584	-0.1524088	1.3870394	0.1905580	0.0538566	0.5217609	0.0381139	-0.1195953	0.4631547	-0.1202032	0.0603489	0.5042296	0.1281307	-0.2249274	0.0417787	-0.1201860	0.1566353	0.0488538	0.1184092	-0.0104923	0.9765968	0.1116773	-0.2070962	1.0169377	0.0473330	-0.0102396	0.9693633	-0.1121339	-0.1154723	0.4785345	-0.0271308	-0.3127072	0.1175111	-0.0989467	-0.2893739	0.1196142	-0.0212726	0.0557679	0.1009464	0.1001996	0.0704689	0.1138364	0.0203231	-0.2708563	0.3762461	-0.1104882	-0.2258502	0.4159130	-0.1370867	-0.2116563	0.6181759	-0.1016491	-0.2023670	0.6957606	-0.1464355
606	3.0600000	-0.3778550	0.0949830	-0.0461771	-0.0091055	0.0631344	0.0507415	-0.2294319	1.3739117	-0.0463753	-0.1435349	1.4231750	-0.1789806	0.0201446	0.3211062	0.1482143	-0.0148268	0.5691143	0.1621747	-0.1656604	0.5961229	-0.1490079	-0.0360290	0.3202946	0.1222156	-0.0895061	0.6447546	0.1810888	-0.2037025	1.0249378	-0.0650537	-0.0080575	0.3847895	0.1492188	-0.2341710	0.3501503	-0.1398032	-0.0690193	0.5693414	0.1370514	-0.1518810	1.3873240	0.1918809	0.0526424	0.5213996	0.0387457	-0.1143777	0.4625884	-0.1203150	0.0591645	0.5036130	0.1289761	-0.2293772	0.0420154	-0.1204203	0.1516520	0.0480316	0.1182732	-0.0090594	0.9772745	0.1127134	-0.2058026	1.0172051	0.0490471	-0.0095698	0.9701208	-0.1112584	-0.1073187	0.4778433	-0.0269473	-0.3169947	0.1225264	-0.1005086	-0.2911435	0.1225962	-0.0213447	0.0509487	0.1007732	0.1003547	0.0658585	0.1135613	0.0205028	-0.2675439	0.3788747	-0.1096061	-0.2217866	0.4175219	-0.1364411	-0.2078772	0.6172825	-0.0996229	-0.1995414	0.6949130	-0.1442457
607	3.0700000	-0.3800584	0.1012450	-0.0467103	-0.0144217	0.0632202	0.0508479	-0.2291820	1.3742603	-0.0447346	-0.1441466	1.4237146	-0.1774173	0.0162962	0.3206358	0.1480096	-0.0151745	0.5698635	0.1626557	-0.1616098	0.5955631	-0.1473308	-0.0394779	0.3205462	0.1209070	-0.0899610	0.6452021	0.1828373	-0.2029877	1.0253474	-0.0634429	-0.0115046	0.3844569	0.1486554	-0.2306652	0.3524427	-0.1398726	-0.0692422	0.5701670	0.1383528	-0.1511665	1.3878452	0.1934525	0.0515492	0.5210999	0.0389835	-0.1080496	0.4620258	-0.1209433	0.0577888	0.5030827	0.1297156	-0.2340772	0.0425088	-0.1205320	0.1464598	0.0478033	0.1179687	-0.0073377	0.9780994	0.1136262	-0.2045248	1.0176896	0.0509257	-0.0089192	0.9708487	-0.1103583	-0.1020601	0.4769413	-0.0257093	-0.3188230	0.1264944	-0.1011592	-0.2925650	0.1259512	-0.0220348	0.0458668	0.1006219	0.1003298	0.0607171	0.1134286	0.0204437	-0.2630679	0.3815656	-0.1088650	-0.2169814	0.4196625	-0.1356901	-0.2036434	0.6160489	-0.0976854	-0.1966078	0.6939696	-0.1422584
608	3.0800000	-0.3816217	0.1084083	-0.0472327	-0.0199044	0.0631983	0.0509252	-0.2291473	1.3748257	-0.0427469	-0.1449323	1.4243922	-0.1758754	0.0118845	0.3206514	0.1478596	-0.0175100	0.5703520	0.1632136	-0.1566417	0.5948078	-0.1458597	-0.0434517	0.3210363	0.1192719	-0.0910669	0.6468385	0.1835647	-0.2027108	1.0258088	-0.0615829	-0.0152563	0.3845195	0.1478845	-0.2262372	0.3549562	-0.1400580	-0.0716185	0.5716667	0.1388689	-0.1502733	1.3883904	0.1951112	0.0495117	0.5211367	0.0392841	-0.1006938	0.4615333	-0.1216081	0.0557173	0.5028662	0.1301977	-0.2382234	0.0431778	-0.1209801	0.1410720	0.0475569	0.1177635	-0.0059466	0.9790533	0.1147048	-0.2034857	1.0184300	0.0527322	-0.0084474	0.9718905	-0.1093538	-0.0943999	0.4764559	-0.0255178	-0.3197553	0.1309960	-0.1019749	-0.2931376	0.1296476	-0.0229624	0.0405380	0.1006662	0.1003526	0.0553827	0.1133771	0.0205546	-0.2576245	0.3846082	-0.1085747	-0.2107714	0.4217308	-0.1352245	-0.1989032	0.6147308	-0.0960829	-0.1931353	0.6926874	-0.1405718
609	3.0900000	-0.3823396	0.1163806	-0.0472157	-0.0253163	0.0631716	0.0511927	-0.2291974	1.3754065	-0.0407428	-0.1454868	1.4251250	-0.1743055	0.0074399	0.3207894	0.1479456	-0.0208498	0.5706782	0.1640124	-0.1510715	0.5939893	-0.1445019	-0.0476462	0.3216644	0.1179642	-0.0928536	0.6488587	0.1835076	-0.2021833	1.0263449	-0.0598994	-0.0194516	0.3848670	0.1474231	-0.2204072	0.3577135	-0.1407856	-0.0747022	0.5730149	0.1391923	-0.1494723	1.3892753	0.1965118	0.0473193	0.5213186	0.0396718	-0.0925635	0.4610456	-0.1227314	0.0537915	0.5027174	0.1308150	-0.2429757	0.0456571	-0.1221674	0.1356651	0.0476018	0.1177007	-0.0043701	0.9799081	0.1155217	-0.2023762	1.0191664	0.0545082	-0.0084868	0.9730997	-0.1081947	-0.0861177	0.4758855	-0.0256903	-0.3196591	0.1358151	-0.1028362	-0.2929585	0.1337946	-0.0239555	0.0349772	0.1003994	0.1005023	0.0508246	0.1149869	0.0192187	-0.2511797	0.3877365	-0.1087061	-0.2033920	0.4237889	-0.1351343	-0.1936713	0.6130360	-0.0946020	-0.1893452	0.6910714	-0.1392235
610	3.1000000	-0.3820977	0.1253909	-0.0474450	-0.0308053	0.0632973	0.0513522	-0.2291291	1.3762293	-0.0389227	-0.1459747	1.4260364	-0.1728139	0.0031184	0.3211098	0.1481483	-0.0243546	0.5708693	0.1648814	-0.1447268	0.5928306	-0.1436062	-0.0515867	0.3225429	0.1172259	-0.0948590	0.6506733	0.1832906	-0.2022644	1.0269773	-0.0579564	-0.0233478	0.3853245	0.1475922	-0.2140107	0.3601844	-0.1415963	-0.0778125	0.5742891	0.1395631	-0.1484857	1.3900648	0.1980894	0.0443819	0.5214523	0.0402332	-0.0834165	0.4609405	-0.1241377	0.0512924	0.5025969	0.1315258	-0.2468551	0.0468378	-0.1221548	0.1303368	0.0474574	0.1176656	-0.0031871	0.9809653	0.1163664	-0.2015136	1.0201625	0.0563742	-0.0086779	0.9741652	-0.1071208	-0.0769666	0.4752480	-0.0264033	-0.3194133	0.1412669	-0.1035513	-0.2918447	0.1384889	-0.0248749	0.0298564	0.1004852	0.1006631	0.0454805	0.1149004	0.0194738	-0.2435455	0.3909423	-0.1092167	-0.1951464	0.4259236	-0.1357721	-0.1874742	0.6109296	-0.0935148	-0.1852097	0.6890999	-0.1381889
